<?xml version="1.0" standalone="no"?><!DOCTYPE svg PUBLIC "-//W3C//DTD SVG 1.1//EN" "http://www.w3.org/Graphics/SVG/1.1/DTD/svg11.dtd"><svg t="1557992532841" class="icon" style="" viewBox="0 0 1024 1024" version="1.1" xmlns="http://www.w3.org/2000/svg" p-id="1508" xmlns:xlink="http://www.w3.org/1999/xlink" width="300" height="300"><defs><style type="text/css"></style></defs><path d="M924.5184 190.5664h-35.8912c18.176-30.8736 26.2144-60.3136 23.6544-87.6032-2.1504-22.8352-12.9536-55.5008-52.6848-81.5616-32.9728-21.6576-75.3664-26.9824-122.3168-15.2576-76.1856 19.0976-166.4 84.8384-225.7408 164.2496C452.2496 90.9312 362.1376 25.2416 285.952 6.144c-47.0528-11.776-89.4464-6.4512-122.368 15.2064-39.68 26.0608-50.5344 58.7264-52.6336 81.5616-2.56 27.3408 5.3248 56.7296 23.6544 87.6032h-35.9424A98.816 98.816 0 0 0 0 289.1776v147.8144c0 43.008 28.416 80.9984 69.4784 93.7984a97.8944 97.8944 0 0 0-5.9392 33.28v360.4992a98.816 98.816 0 0 0 98.7136 98.6112h698.7264a98.816 98.816 0 0 0 98.6624-98.6112v-360.4992c0-11.3664-1.9456-22.5792-5.8368-33.28a98.6112 98.6112 0 0 0 69.3248-93.7984V289.1776a98.7136 98.7136 0 0 0-98.6112-98.6112M192 51.0976c20.4288-13.2608 89.088-15.3088 135.936 14.848 41.7792 26.9312 78.7968 55.3472 141.1072 125.952H183.296c-17.8176-27.904-34.2528-52.736-34.0992-76.8512 0-31.5392 21.0944-49.9712 42.8032-63.9488M490.2912 980.48H149.1968c-16.64 0-42.6496-25.856-42.6496-42.5984V562.688c0-16.7424 13.4656-30.4128 30.0544-30.4128h353.6384v448.2048h0.0512m0.1536-490.3936l-405.1456-0.4096c-17.3056 0-42.6496-22.6304-42.6496-42.6496V277.0944c0-20.0704 25.344-42.6496 42.6496-42.6496l405.1456-0.3584v256m204.8-425.3184c46.848-30.4128 115.456-28.3136 135.8848-14.9504 21.76 14.1312 42.8032 32.7168 42.8032 64.512 0.2048 24.32-16.1792 49.408-34.048 77.568h-285.7984c62.3104-71.3216 99.328-99.9936 141.1584-127.1296m221.3376 873.1136c0 16.7424-26.0096 42.5984-42.6496 42.5984h-341.0432v-448.2048h353.6384c16.5888 0 30.0544 13.6704 30.0544 30.4128v375.1936m63.9488-491.264c0 19.9168-25.344 42.3936-42.6496 42.3936l-405.1968 0.4096V234.752l405.1968 0.3072c17.3056 0 42.6496 22.4768 42.6496 42.3936v169.1648m0 0" p-id="1509"></path></svg>