<?xml version="1.0" standalone="no"?><!DOCTYPE svg PUBLIC "-//W3C//DTD SVG 1.1//EN" "http://www.w3.org/Graphics/SVG/1.1/DTD/svg11.dtd"><svg t="1557993818003" class="icon" style="" viewBox="0 0 1024 1024" version="1.1" xmlns="http://www.w3.org/2000/svg" p-id="35878" xmlns:xlink="http://www.w3.org/1999/xlink" width="300" height="300"><defs><style type="text/css"></style></defs><path d="M561.081083 136.506441c-14.325487-1.66607-28.869027-2.491511-43.615029-2.491511-211.068695 0-384.15894 173.977843-392.27164 393.174628l17.284081-25.505707c-47.523579 19.728824-79.382379 67.797433-79.382379 122.047652 0 72.515435 56.399161 131.31257 125.987181 131.31257 3.488035 0 6.960281-0.140105 10.401548-0.420515l-2.24228-28.542048-24.073278 13.796246c68.466979 129.973478 199.436982 212.485535 344.312156 212.485535 143.068999 0 272.621762-80.45685 341.820646-207.829891l-23.605995 14.52795c69.01181-0.809851 124.585731-59.326577 124.585731-131.32816 0-47.959483-24.929498-91.403428-64.293809-114.464393l13.998509 24.618109c-1.027703-85.641935-27.421009-167.142078-74.788893-235.032848-8.922351-12.783932-26.097506-15.618011-38.367587-6.306324-12.270281 9.296097-14.979644 27.202956-6.072883 39.987089 40.718993 58.376621 63.390621 128.385155 64.278219 202.068398l0.218052 16.505609 13.811636 8.09691c22.235724 13.017574 36.265412 37.480188 36.265412 64.54304 0 40.609867-31.329359 73.621085-70.241976 74.056989l-15.835863 0.202463-7.785721 14.341077c-59.544429 109.590698-170.956891 178.773791-294.001267 178.773791-124.61691 0-237.243949-70.97388-296.15001-182.822446l-8.579783-16.271968-17.735575 1.525965c-1.94648 0.171284-3.92394 0.264621-5.932578 0.264621-39.239596 0-71.036237-33.166913-71.036237-74.056989 0-30.597455 17.969217-57.722664 44.767448-68.840526l16.598946-6.882534 0.700725-18.592194c6.99166-188.521383 155.837342-338.161327 337.382854-338.161327 12.706185 0 25.241087 0.716314 37.542346 2.148943 15.072981 1.744018 28.666764-9.576307 30.348424-25.303244C587.023094 152.420251 576.185242 138.266048 561.081083 136.506441M699.665723 653.254885c-1.650681 3.456856-3.456856 6.97587-5.465494 10.6196-37.184189 67.766254-106.242767 110.431527-182.526447 110.431527-80.410082 0-152.629717-47.476811-188.007531-121.113285-6.804586-14.138814-23.310196-19.853339-36.8728-12.768343-13.562605 7.084996-19.059278 24.29133-12.254491 38.429944 44.611553 92.835857 135.719182 152.738643 237.135022 152.738643 96.168198 0 183.351688-53.845293 230.22131-139.253986 2.5069-4.562307 4.827127-9.078045 6.960281-13.562405 6.757818-14.154403 1.198987-31.360737-12.379207-38.383176C722.897971 633.339188 706.392362 639.116071 699.665723 653.254885M642.363374 126.852386c19.137025 0.342568 37.386652 8.206036 51.338393 22.562702 29.414257 30.286066 29.678878 79.724946 0.591599 110.384759-29.07149 30.690992-76.501732 30.971401-105.946968 0.653957-10.775294-11.117862-28.184091-11.008936-38.850459 0.249231-10.666368 11.242378-10.572832 29.367489 0.249231 40.485351 50.995825 52.552969 133.243261 52.054707 183.632097-1.12104 50.435205-53.160357 49.952532-138.880239-1.074472-191.402229-24.073078-24.789393-55.854131-38.461123-88.989865-39.068512-15.166517-0.28021-27.685629 12.317049-27.93486 28.137323C615.113649 113.538813 627.196857 126.571976 642.363374 126.852386M716.155543 486.860301c10.168106 10.401548 16.49002 24.86734 16.49002 40.890077 0 31.609769-24.602519 57.255581-54.951143 57.255581-30.332834 0-54.935554-25.630223-54.935554-57.255581 0-31.625358 24.602719-57.27117 54.935554-57.27117C692.674063 470.494797 706.252257 476.723374 716.155543 486.860301M388.7851 486.860301c10.168106 10.401548 16.47443 24.86734 16.47443 40.890077 0 31.609769-24.602519 57.255581-54.935554 57.255581-30.332834 0-54.950943-25.630223-54.950943-57.255581 0-31.625358 24.618109-57.27117 54.950943-57.27117C365.288031 470.494797 378.866225 476.723374 388.7851 486.860301" p-id="35879"></path></svg>