<?xml version="1.0" standalone="no"?><!DOCTYPE svg PUBLIC "-//W3C//DTD SVG 1.1//EN" "http://www.w3.org/Graphics/SVG/1.1/DTD/svg11.dtd"><svg t="1557992929814" class="icon" style="" viewBox="0 0 1024 1024" version="1.1" xmlns="http://www.w3.org/2000/svg" p-id="13311" xmlns:xlink="http://www.w3.org/1999/xlink" width="300" height="300"><defs><style type="text/css"></style></defs><path d="M917.333333 0H106.666667C46.933333 0 0 46.933333 0 106.666667v640c0 59.733333 46.933333 106.666667 106.666667 106.666666h202.666666l172.8 160c8.533333 6.4 19.2 10.666667 29.866667 10.666667s21.333333-4.266667 29.866667-10.666667l172.8-160H917.333333c59.733333 0 106.666667-46.933333 106.666667-106.666666V106.666667c0-59.733333-46.933333-106.666667-106.666667-106.666667z m21.333334 746.666667c0 12.8-8.533333 21.333333-21.333334 21.333333h-202.666666c-21.333333 0-42.666667 8.533333-57.6 23.466667L512 923.733333 366.933333 789.333333c-14.933333-14.933333-36.266667-23.466667-57.6-23.466666H106.666667c-12.8 0-21.333333-8.533333-21.333334-21.333334V106.666667c0-12.8 8.533333-21.333333 21.333334-21.333334h810.666666c12.8 0 21.333333 8.533333 21.333334 21.333334v640z" p-id="13312"></path><path d="M610.133333 192h-234.666666v85.333333h234.666666v128h-64c-46.933333 0-85.333333 38.4-85.333333 85.333334v85.333333h85.333333v-85.333333h64c46.933333 0 85.333333-38.4 85.333334-85.333334v-128c0-46.933333-38.4-85.333333-85.333334-85.333333zM460.8 627.2h85.333333v85.333333h-85.333333z" p-id="13313"></path></svg>