<?xml version="1.0" standalone="no"?><!DOCTYPE svg PUBLIC "-//W3C//DTD SVG 1.1//EN" "http://www.w3.org/Graphics/SVG/1.1/DTD/svg11.dtd"><svg t="1557993094574" class="icon" style="" viewBox="0 0 1024 1024" version="1.1" xmlns="http://www.w3.org/2000/svg" p-id="15742" xmlns:xlink="http://www.w3.org/1999/xlink" width="300" height="300"><defs><style type="text/css"></style></defs><path d="M61.096436 968.22658h169.6739c15.710257 0 28.018336-14.916044 28.018335-33.954859V103.1139c0-19.038815-12.308078-33.954858-28.018335-33.954859H61.096436c-15.710257 0-28.016105 14.916044-28.016105 33.954859v174.7002c0 8.52441 6.967216 15.433621 15.565246 15.433621 8.5958 0 15.565246-6.909211 15.565247-15.433621V103.1139c0-1.28502 0.18963-2.320174 0.417185-3.087617h162.612984c0.227556 0.765211 0.419416 1.802597 0.419417 3.087617v831.157821c0 1.282789-0.191861 2.320174-0.417186 3.085386H64.628009a10.940514 10.940514 0 0 1-0.417185-3.085386V516.539956c19.228444-6.438484 33.0781-24.45776 33.0781-45.696278 0-26.637386-21.778405-48.232854-48.643347-48.232854-26.867172 0-48.645577 21.595468-48.645577 48.232854 0 21.238519 13.849656 39.257795 33.080331 45.696278V934.271721c0 19.038815 12.305847 33.954858 28.016105 33.954859zM351.455094 69.159041C335.771608 69.159041 323.485839 84.075085 323.485839 103.1139v831.157821c0 19.038815 12.285769 33.954858 27.969255 33.954859h169.386109c15.683486 0 27.969255-14.916044 27.969255-33.954859V103.1139c0-19.038815-12.285769-33.954858-27.969255-33.954859h-169.386109z m166.278414 865.114911c0 1.28502-0.191861 2.320174-0.417186 3.087617h-162.338579a10.958362 10.958362 0 0 1-0.414954-3.087617V103.1139c0-1.28502 0.18963-2.320174 0.414954-3.087617h162.338579c0.225325 0.765211 0.417185 1.802597 0.417186 3.087617V934.271721z" p-id="15743"></path><path d="M196.255512 745.132898H98.228148c-8.662728 0-15.683486 6.492026-15.683486 14.501089s7.020758 14.501089 15.683486 14.501089h98.027364c8.662728 0 15.683486-6.492026 15.683486-14.501089s-7.020758-14.501089-15.683486-14.501089zM196.255512 841.063181H98.228148c-8.662728 0-15.683486 6.492026-15.683486 14.501089s7.020758 14.501089 15.683486 14.501089h98.027364c8.662728 0 15.683486-6.492026 15.683486-14.501089s-7.020758-14.501089-15.683486-14.501089zM484.046362 745.132898h-98.027364c-8.662728 0-15.683486 6.492026-15.683486 14.501089s7.020758 14.501089 15.683486 14.501089h98.027364c8.662728 0 15.683486-6.492026 15.683485-14.501089s-7.020758-14.501089-15.683485-14.501089zM484.046362 841.063181h-98.027364c-8.662728 0-15.683486 6.492026-15.683486 14.501089s7.020758 14.501089 15.683486 14.501089h98.027364c8.662728 0 15.683486-6.492026 15.683485-14.501089s-7.020758-14.501089-15.683485-14.501089zM800.419974 55.77342c-1.865063 0-3.730126 0.220863-5.541647 0.653665L631.540288 95.573333c-15.125752 3.625272-23.507381 20.966344-19.085665 39.480889l193.08312 808.19702c3.826057 16.018126 15.88427 27.208505 29.31451 27.208505 1.869525 0 3.734588-0.220863 5.546109-0.653664l163.338039-39.144018c15.125752-3.627503 23.507381-20.966344 19.085664-39.480889L829.738946 82.981926C825.91512 66.9638 813.856906 55.77342 800.419974 55.77342z m192.748479 845.681221l-156.542606 37.519895a11.087756 11.087756 0 0 1-1.117699-2.906911L642.425028 127.870606a11.123451 11.123451 0 0 1-0.314562-3.101003l156.542606-37.513202c0.392645 0.69159 0.818754 1.657586 1.117699 2.90468l193.08312 808.197019c0.298946 1.249325 0.35695 2.304558 0.314562 3.098771z" p-id="15744"></path><path d="M825.283765 776.366013c1.193551 0 2.402719-0.140549 3.614117-0.42834l93.996061-22.541385c8.305778-1.989996 13.43024-10.353778 11.440244-18.677403-1.987765-8.321394-10.322545-13.459242-18.637246-11.467016l-93.998292 22.541386c-8.305778 1.992227-13.43024 10.356009-11.440244 18.679634a15.476009 15.476009 0 0 0 15.02536 11.893124zM832.567773 855.939068a15.476009 15.476009 0 0 0 15.02536 11.895355c1.19132 0 2.402719-0.140549 3.614118-0.42834l93.996061-22.541386c8.305778-1.989996 13.43024-10.356009 11.440244-18.679634a15.460392 15.460392 0 0 0-18.637247-11.464784l-93.998292 22.541385c-8.305778 1.989996-13.428009 10.351547-11.440244 18.677404z" p-id="15745"></path></svg>