<?xml version="1.0" standalone="no"?><!DOCTYPE svg PUBLIC "-//W3C//DTD SVG 1.1//EN" "http://www.w3.org/Graphics/SVG/1.1/DTD/svg11.dtd"><svg t="1557993524750" class="icon" style="" viewBox="0 0 1024 1024" version="1.1" xmlns="http://www.w3.org/2000/svg" p-id="33153" xmlns:xlink="http://www.w3.org/1999/xlink" width="300" height="300"><defs><style type="text/css"></style></defs><path d="M513.664 419.216c-105.664 0-191.648-85.968-191.648-191.648 0-105.68 85.984-191.664 191.648-191.664s191.648 85.984 191.648 191.664c-0.016 105.68-85.984 191.648-191.648 191.648z m0-351.296c-88.032 0-159.648 71.632-159.648 159.664 0 88.016 71.616 159.648 159.648 159.648s159.648-71.616 159.648-159.648c-0.016-88.032-71.632-159.664-159.648-159.664zM517.984 999.2l-266.064-81.36V446.144l266.288 65.84L798.08 446.4v471.616L517.984 999.2z m-234.064-105.04l234.32 71.664 247.856-71.84V486.768l-248.08 58.128-234.08-57.872v407.136z" fill="" p-id="33154"></path><path d="M501.088 537.648h32v444.88h-32z" fill="" p-id="33155"></path><path d="M238 766.56a29.92 25.248 0 1 0 59.84 0 29.92 25.248 0 1 0-59.84 0Z" fill="" p-id="33156"></path><path d="M752.16 766.56a29.92 25.248 0 1 0 59.84 0 29.92 25.248 0 1 0-59.84 0Z" fill="" p-id="33157"></path></svg>