<?xml version="1.0" standalone="no"?><!DOCTYPE svg PUBLIC "-//W3C//DTD SVG 1.1//EN" "http://www.w3.org/Graphics/SVG/1.1/DTD/svg11.dtd"><svg t="1557993246525" class="icon" style="" viewBox="0 0 1024 1024" version="1.1" xmlns="http://www.w3.org/2000/svg" p-id="16182" xmlns:xlink="http://www.w3.org/1999/xlink" width="300" height="300"><defs><style type="text/css"></style></defs><path d="M776.6 477.1V371.5v-18.1c0-15.8-3.6-30.9-10.9-44.9-6.4-12.3-16.1-21.7-25.8-31.4-26.9-27-53.9-54-80.8-81-28.9-29-57.8-58-86.8-87-5.5-5.5-10.9-11-16.5-16.5-18.7-18.4-43-27.3-69-27.3H176.1c-26.5 0-51.3 9.1-71 26.9-20.9 18.9-32.3 46.6-32.5 74.6-0.1 14.3 0 28.5 0 42.8v642.9c0 21.7 6.2 43.5 19.4 60.9 19.8 26 49.3 41.5 82.2 41.7 24.3 0.1 48.6 0 73 0h261.1c11.2 0 22-9.9 21.5-21.5s-9.4-21.5-21.5-21.5H174.6c-1.5 0-2.9 0-4.4-0.1-1.6-0.1-4.7-0.9-6.2-0.5 0.4-0.1 5.3 0.9 1.7 0.2-0.9-0.2-1.8-0.3-2.7-0.5-3.9-0.8-7.8-1.9-11.5-3.3-0.7-0.3-1.8-0.9-2.5-1 3.7 0.5 3.3 1.5 1.5 0.6-1.6-0.8-3.1-1.5-4.7-2.4-1.7-1-3.4-2-5-3-0.7-0.5-1.4-1-2.2-1.5-3-2-0.1-0.7 0.7 0.6-0.8-1.3-3.3-2.7-4.4-3.8-1.4-1.3-2.8-2.7-4.2-4.1-1.2-1.3-2.3-2.6-3.4-3.9-1.6-1.8 0.4-1.1 1 1.3-0.2-1-1.7-2.4-2.3-3.2-1.9-2.9-3.7-5.9-5.2-9-0.4-0.8-0.7-1.6-1.1-2.4-1.6-3.4 0.7 1.2 0.6 1.5 0.3-1.3-1.8-4.9-2.2-6.3-0.5-1.7-1-3.4-1.4-5.2-0.2-1.1-0.5-2.2-0.7-3.3-0.2-0.9-0.3-3.9-0.1-0.5 0.2 3.9-0.2-2.5-0.2-3.3-0.1-1.6-0.1-3.2-0.2-4.9v-2.4-17.8-77.5-116.8-136-135-114.3-72.6-14.6-0.9c0-1.4 0-2.8 0.1-4.2 0.1-1.7 0.8-3.9 0.5-5.5 0.6 3.1-0.6 4-0.2 1.7 0.3-1.3 0.5-2.6 0.8-4 0.8-3.5 1.9-6.8 3.1-10.2 1.4-4.3-1.8 3.5-0.4 0.9 0.4-0.8 0.7-1.6 1.1-2.4 0.9-1.8 1.8-3.5 2.8-5.2 1-1.7 2-3.3 3.1-5l1.5-2.1c1.6-2.5-3.5 4.1-0.6 0.8 2.6-2.9 5.2-5.8 8.1-8.4 1.1-1 3.3-2.2 4-3.4-0.2 0.4-4.2 3-1.2 1l2.1-1.5c3.3-2.2 6.7-4 10.3-5.8 3.2-1.7-1 0.5-1.5 0.6 0.7-0.1 1.8-0.7 2.5-1 1.9-0.7 3.8-1.3 5.7-1.9 1.7-0.5 3.5-0.9 5.2-1.3 1.1-0.2 2.2-0.4 3.3-0.7 3.9-0.8-3.7 0.3-1 0.1 4.1-0.3 8.1-0.5 12.2-0.5h313.9c1.1 0 2.2 0 3.2 0.1 0.7 0 6.2 0.7 2.8 0.2-3.2-0.5 3.5 0.8 4.2 0.9 2.3 0.6 4.6 1.2 6.9 2 0.4 0.1 3 1.1 3 1.1-0.1 0.2-4.8-2.4-0.8-0.2 2.4 1.2 4.7 2.4 7 3.9l2.7 1.8c2.5 1.6 0.5-0.5-0.5-0.5 1.1 0 4.1 3.5 4.8 4.3 0.5 0.4 0.9 0.9 1.4 1.4 18.8 18.7 37.5 37.6 56.2 56.3 31.5 31.5 62.9 63.1 94.4 94.6 11.1 11.1 22.2 22.2 33.2 33.3 2.8 2.8 5.5 5.6 8.3 8.3l1.4 1.4c1.7 1.7 3.3 3.6 4.9 5.4 2 2.3-2-3.1-0.5-0.6 0.7 1.1 1.5 2.2 2.2 3.3 1.3 2 2.4 4.1 3.5 6.2 0.7 1.4 2.7 3.8 0.1-0.1 0.5 0.7 0.8 2.2 1.1 2.9 0.7 2 1.3 4 1.8 6 0.4 1.7 1.6 4.5 1.3 6.2 0.6-2.9-0.3-3.2-0.2-1l0.3 4.8v126.7c0 11.2 9.9 22 21.5 21.5 11.7-0.3 21.5-9.2 21.5-21.3z" p-id="16183"></path><path d="M229.3 344.6h178c11.2 0 22-9.9 21.5-21.5s-9.4-21.5-21.5-21.5h-178c-11.2 0-22 9.9-21.5 21.5s9.5 21.5 21.5 21.5zM229.3 531.8h316.5c14.6 0 29.3 0.4 44 0h0.6c11.2 0 22-9.9 21.5-21.5s-9.4-21.5-21.5-21.5H273.9c-14.6 0-29.3-0.4-44 0h-0.6c-11.2 0-22 9.9-21.5 21.5s9.5 21.5 21.5 21.5zM233.7 719h316.5c14.6 0 29.3 0.4 44 0h0.6c11.2 0 22-9.9 21.5-21.5s-9.4-21.5-21.5-21.5H278.3c-14.6 0-29.3-0.4-44 0h-0.6c-11.2 0-22 9.9-21.5 21.5s9.4 21.5 21.5 21.5z" p-id="16184"></path><path d="M771.4 739.4c55.2 0 100.4-45.2 100.4-100.4s-45.2-100.4-100.4-100.4S671 583.8 671 639s45.2 100.4 100.4 100.4z m179.7 183.7c-7-79.3-66.3-144.5-143.5-159.6l-21.1 21.1c6 31.1 15.1 81.3 15.1 95.4 0 10-21.1 40.2-30.1 40.2s-30.1-30.1-30.1-40.2c0-14.1 9-64.2 15.1-95.4l-21.1-21.1c-77.3 16.1-136.5 80.3-143.5 159.6-1 12 1 17.1 1 17.1 4 12 15.1 20.1 28.1 20.1h301.1c13.1 0 24.1-8 28.1-20.1-0.2-0.1 1.9-5.1 0.9-17.1z" p-id="16185"></path></svg>