<?xml version="1.0" standalone="no"?><!DOCTYPE svg PUBLIC "-//W3C//DTD SVG 1.1//EN" "http://www.w3.org/Graphics/SVG/1.1/DTD/svg11.dtd"><svg t="1557992716644" class="icon" style="" viewBox="0 0 1024 1024" version="1.1" xmlns="http://www.w3.org/2000/svg" p-id="3835" xmlns:xlink="http://www.w3.org/1999/xlink" width="300" height="300"><defs><style type="text/css"></style></defs><path d="M913.818 786.688c-21.146-65.485-53.658-126.208-93.594-163.584l-10.496-3.43H332.237L218.06 620.8h-9.626l-7.475 6.298c-52.224 45.158-82.842 111.052-100.66 178.124a789.3 789.3 0 0 0-23.5 180.634l-0.512 26.01H936.96l8.96-17.05c6.4-59.085-9.882-139.776-32.102-208.128zM479.078 670.72l1.332-28.006a509.798 509.798 0 0 1 73.113 0l1.331 28.006-16.742 27.392 49.92 177.408-68.25 51.2-68.198-51.2 44.186-177.254z" p-id="3836"></path><path d="M762.01 282.01l-10.24-6.861a49.295 49.295 0 0 0-3.687-2.355c-20.992-180.276-19.558-286.72-230.041-255.13C444.212 28.621 363.52 5.888 317.85 39.219 260.147 93.082 256 174.08 271.667 268.902a115.098 115.098 0 0 0-10.24 6.298l-10.24 6.86v12.186c-0.512 31.59 3.482 58.317 12.083 78.746a79.258 79.258 0 0 0 34.765 40.96c17.971 61.696 44.288 108.288 77.261 141.62a227.226 227.226 0 0 0 128 65.433l4.352 0.665 4.352-0.87c54.17-11.366 97.28-32.973 131.84-69.12 32-33.485 55.86-78.643 73.37-139.008a80.18 80.18 0 0 0 33.433-40.96c8.243-20.48 11.981-46.49 11.52-77.466z m-55.45 72.038c-4.198 10.24-9.933 16.998-17.203 19.507l-11.93 4.199-3.225 12.083c-15.668 57.907-36.608 99.84-64.717 129.28-26.573 27.75-60.16 44.851-102.4 54.425a179.2 179.2 0 0 1-97.28-50.841c-29.287-29.747-52.685-72.909-68.915-132.25l-3.43-12.646-12.954-4.045c-7.373-2.253-13.261-8.858-17.51-19.098a121.651 121.651 0 0 1-7.988-38.246c11.622-1.74 24.576-5.12 30.72-0.87 0.768-2.1 1.434-4.557 2.202-7.373h0.358l0.922-5.12c3.43-13.722 7.372-100.045 10.854-113.92a39.168 39.168 0 0 1 4.557-11.93c16.947 22.989 145.254 25.6 219.75-25.6l-13.926 37.479 14.131 2.816 15.923-25.242-1.74 17.664 15.001 1.946 9.37-29.03c18.483 10.546 38.912 24.626 57.088 16.998 6.144 13.619 10.752 96.716 13.824 112.64l3.942 20.48 6.86-0.461 3.175 10.752a201.83 201.83 0 0 1 22.119-1.331 124.57 124.57 0 0 1-7.578 37.734z" p-id="3837"></path></svg>