<?xml version="1.0" standalone="no"?><!DOCTYPE svg PUBLIC "-//W3C//DTD SVG 1.1//EN" "http://www.w3.org/Graphics/SVG/1.1/DTD/svg11.dtd"><svg t="1557993158330" class="icon" style="" viewBox="0 0 1349 1024" version="1.1" xmlns="http://www.w3.org/2000/svg" p-id="15962" xmlns:xlink="http://www.w3.org/1999/xlink" width="395.21484375" height="300"><defs><style type="text/css"></style></defs><path d="M0 0v1024h1349.071882V0H0z m1243.115062 925.9111H1074.523749c-16.483617-33.097282-50.540005-55.88824-90.009652-55.88824s-73.526035 22.774702-90.009652 55.88824H456.794514c-16.467361-33.097282-50.540005-55.88824-90.009652-55.88824s-73.542291 22.774702-90.009652 55.88824H111.906528V97.76378H1243.098806v828.14732z" p-id="15963"></path><path d="M469.994412 203.167894c-112.96317 0-204.549657 91.586487-204.549657 204.549657 0 112.995682 91.586487 204.565913 204.549657 204.565914 112.979426 0 204.549657-91.570231 204.549657-204.565914 0-112.96317-91.570231-204.549657-204.549657-204.549657z m-0.016256 304.117857a99.568199 99.568199 0 1 1 0-199.136399 99.568199 99.568199 0 0 1 0 199.136399z" p-id="15964"></path><path d="M320.373889 757.043434c0-79.947168 67.023622-144.75997 149.685547-144.759969s149.685547 64.812802 149.685547 144.759969c0 2.714757-0.276353 5.348235-0.422656 8.014224h107.614935c0.211328-3.998984 0.633985-7.932944 0.633985-11.980696 0-135.754128-115.320295-245.791212-257.609347-245.791211-142.272797 0-257.593091 110.05334-257.593091 245.791211 0 4.047752 0.422657 7.981712 0.633985 11.980696h107.777496c-0.130048-2.665989-0.406401-5.299467-0.406401-8.014224zM829.740411 357.730251h306.832614v105.664212H829.740411zM829.740411 559.451359h306.832614v105.664211H829.740411z" p-id="15965"></path></svg>