<?xml version="1.0" standalone="no"?><!DOCTYPE svg PUBLIC "-//W3C//DTD SVG 1.1//EN" "http://www.w3.org/Graphics/SVG/1.1/DTD/svg11.dtd"><svg t="1557992602023" class="icon" style="" viewBox="0 0 1024 1024" version="1.1" xmlns="http://www.w3.org/2000/svg" p-id="11140" xmlns:xlink="http://www.w3.org/1999/xlink" width="300" height="300"><defs><style type="text/css"></style></defs><path d="M512 509.44c-125.44 0-229.888-90.624-251.904-209.408 14.848-10.24 24.064-27.136 24.064-46.592 0-31.232-25.6-56.832-56.832-56.832s-56.832 25.6-56.832 56.832c0 22.528 13.312 42.496 32.768 51.712 24.576 147.968 153.6 261.632 308.736 261.632s284.16-113.152 308.736-261.632c19.456-9.216 32.768-28.672 32.768-51.712 0-31.232-25.6-56.832-56.832-56.832s-56.832 25.6-56.832 56.832c0 19.456 9.728 36.352 24.064 46.592-22.016 118.784-126.464 209.408-251.904 209.408z" fill="" p-id="11141"></path><path d="M844.288 79.872h-193.024c-0.512 0-1.536 0-2.048 0.512-13.824 2.048-24.064 14.336-24.064 28.16s9.728 25.6 23.552 28.16c0.512 0.512 1.536 0.512 2.048 0.512h193.024c23.552 0 42.496 18.944 42.496 42.496v664.576c0 23.552-18.944 42.496-42.496 42.496H179.2c-23.552 0-42.496-18.944-42.496-42.496V179.712c0-23.552 18.944-42.496 42.496-42.496h168.96c0.512 0 1.536 0 2.048-0.512 13.824-2.048 24.064-14.336 24.064-28.16s-9.728-25.6-23.552-28.16c-0.512-0.512-1.536-0.512-2.048-0.512h-168.96c-54.784 0-99.84 44.544-99.84 99.84v664.576c0 54.784 44.544 99.84 99.84 99.84h664.576c55.296 0 99.84-44.544 99.84-99.84V179.712c0-54.784-44.544-99.84-99.84-99.84z" fill="" p-id="11142"></path></svg>