<?xml version="1.0" standalone="no"?><!DOCTYPE svg PUBLIC "-//W3C//DTD SVG 1.1//EN" "http://www.w3.org/Graphics/SVG/1.1/DTD/svg11.dtd"><svg t="1557993641807" class="icon" style="" viewBox="0 0 1024 1024" version="1.1" xmlns="http://www.w3.org/2000/svg" p-id="33374" xmlns:xlink="http://www.w3.org/1999/xlink" width="300" height="300"><defs><style type="text/css"></style></defs><path d="M128 576c19.2 0 32-12.8 32-32 0-163.2 105.6-304 259.2-352 19.2 38.4 57.6 64 99.2 64 60.8 0 112-51.2 112-112S582.4 32 518.4 32c-57.6 0-102.4 41.6-112 96C224 182.4 96 348.8 96 544c0 19.2 12.8 32 32 32zM518.4 96c25.6 0 48 22.4 48 48S547.2 192 518.4 192s-48-22.4-48-48 22.4-48 48-48zM716.8 860.8c-57.6 35.2-121.6 51.2-188.8 51.2-99.2 0-192-41.6-262.4-108.8 12.8-19.2 22.4-41.6 22.4-67.2 0-60.8-51.2-112-112-112S64 675.2 64 736s51.2 112 112 112c12.8 0 25.6-3.2 38.4-6.4 80 86.4 195.2 134.4 313.6 134.4 76.8 0 153.6-22.4 220.8-60.8 16-9.6 19.2-28.8 9.6-44.8-6.4-12.8-25.6-19.2-41.6-9.6zM128 736c0-25.6 22.4-48 48-48S224 710.4 224 736s-22.4 48-48 48S128 761.6 128 736zM947.2 646.4c9.6-32 12.8-67.2 12.8-102.4 0-156.8-86.4-304-224-377.6-16-9.6-35.2-3.2-44.8 12.8-6.4 12.8-3.2 32 12.8 41.6 118.4 64 192 188.8 192 323.2 0 28.8-3.2 54.4-9.6 80h-6.4c-60.8 0-112 51.2-112 112s51.2 112 112 112S992 796.8 992 736c0-35.2-19.2-67.2-44.8-89.6z m-67.2 137.6c-25.6 0-48-22.4-48-48s22.4-48 48-48 48 22.4 48 48-22.4 48-48 48z" p-id="33375"></path><path d="M672 352h-288c-19.2 0-32 12.8-32 32s12.8 32 32 32h288c19.2 0 32-12.8 32-32s-12.8-32-32-32zM672 512h-288c-19.2 0-32 12.8-32 32s12.8 32 32 32h288c19.2 0 32-12.8 32-32s-12.8-32-32-32zM672 672h-288c-19.2 0-32 12.8-32 32s12.8 32 32 32h288c19.2 0 32-12.8 32-32s-12.8-32-32-32z" p-id="33376"></path></svg>