<?xml version="1.0" standalone="no"?><!DOCTYPE svg PUBLIC "-//W3C//DTD SVG 1.1//EN" "http://www.w3.org/Graphics/SVG/1.1/DTD/svg11.dtd"><svg t="1557993127487" class="icon" style="" viewBox="0 0 1024 1024" version="1.1" xmlns="http://www.w3.org/2000/svg" p-id="15853" xmlns:xlink="http://www.w3.org/1999/xlink" width="300" height="300"><defs><style type="text/css"></style></defs><path d="M862.1056 306.9952c15.0528 0 26.8288 12.1856 26.8288 27.2384 0 112.8448-66.6624 191.2832-161.8944 191.2832-1.2288 0-2.56-0.4096-3.7888-0.8192-44.032 91.0336-109.4656 152.2688-185.344 164.0448 0 0.4096 0.4096 0.8192 0.4096 1.2288v109.4656H646.144c15.0528 0 26.8288 12.1856 26.8288 27.2384 0 15.0528-12.1856 27.2384-26.8288 27.2384H376.832c-14.6432 0-26.8288-12.1856-26.8288-27.2384 0-15.0528 12.1856-27.2384 26.8288-27.2384h107.8272V689.9712c0-0.4096 0-0.8192 0.4096-1.2288-75.8784-11.776-141.312-73.0112-184.9344-164.0448-1.2288 0-2.56 0.8192-3.7888 0.8192-95.6416 0.512-162.304-78.4384-162.304-190.7712 0-15.0528 12.1856-27.2384 26.8288-27.2384h83.456c-1.2288-18.8416-2.56-37.7856-2.56-57.0368 0-16.384 0.8192-33.5872 2.1504-53.6576 1.2288-14.2336 12.5952-25.1904 26.8288-25.1904h481.0752c14.2336 0 26.0096 10.8544 26.8288 25.1904 1.6384 19.7632 2.048 37.376 2.048 53.6576 0 19.2512-0.8192 38.6048-2.56 57.0368l83.968-0.512z m-115.712 162.4064c46.592-8.8064 79.2576-48.64 86.8352-107.4176h-60.8256c-5.8368 38.1952-14.6432 73.8304-26.0096 107.4176z m-234.9056-18.944l46.1824 23.8592c15.5648 7.9872 25.6 0.4096 22.6304-16.384l-8.8064-50.3808 37.376-35.6352c12.5952-12.1856 8.8064-23.8592-8.3968-26.4192L548.864 337.92l-23.04-45.6704c-7.9872-15.5648-20.5824-15.5648-28.0576 0L474.7264 337.92l-51.6096 7.5776c-17.2032 2.56-20.992 14.2336-8.3968 26.4192l37.376 35.6352-8.8064 50.3808c-2.9696 17.2032 7.168 24.3712 22.6304 16.384l45.568-23.8592zM189.8496 361.984c7.5776 58.6752 40.2432 98.6112 86.8352 107.4176-11.3664-33.1776-20.1728-69.2224-26.0096-107.4176H189.8496z m0 0" p-id="15854"></path></svg>