<?xml version="1.0" standalone="no"?><!DOCTYPE svg PUBLIC "-//W3C//DTD SVG 1.1//EN" "http://www.w3.org/Graphics/SVG/1.1/DTD/svg11.dtd"><svg t="1557992685570" class="icon" style="" viewBox="0 0 1024 1024" version="1.1" xmlns="http://www.w3.org/2000/svg" p-id="3725" xmlns:xlink="http://www.w3.org/1999/xlink" width="300" height="300"><defs><style type="text/css"></style></defs><path d="M133.142857 690.628571l169.485714-141.942857 84.8 70.971429 271.314286-227.2 220.457143 184.571428v198.857143H133.142857v-85.257143z m0 0M304.342857 447.885714c-31.657143 0-58.628571-11.085714-80.8-33.371428-22.171429-22.171429-33.257143-49.257143-33.257143-81.028572 0-31.771429 11.085714-58.742857 33.257143-81.028571 22.171429-22.285714 49.028571-33.371429 80.8-33.371429 31.657143 0 58.628571 11.085714 80.8 33.371429 22.171429 22.285714 33.257143 49.257143 33.257143 81.028571 0 31.771429-11.085714 58.742857-33.257143 81.028572-22.171429 22.285714-49.142857 33.371429-80.8 33.371428z m0 0" p-id="3726"></path><path d="M976.457143 974.514286h-930.285714c-25.257143 0-45.714286-20.457143-45.714286-45.714286v-827.428571c0-25.257143 20.457143-45.714286 45.714286-45.714286h930.285714c25.257143 0 45.714286 20.457143 45.714286 45.714286v827.428571c0 25.257143-20.457143 45.714286-45.714286 45.714286z m-861.714286-91.428572h793.142857c12.571429 0 22.857143-10.285714 22.857143-22.857143v-690.285714c0-12.571429-10.285714-22.857143-22.857143-22.857143h-793.142857c-12.571429 0-22.857143 10.285714-22.857143 22.857143v690.285714c0 12.685714 10.285714 22.857143 22.857143 22.857143z" p-id="3727"></path></svg>