<?xml version="1.0" standalone="no"?><!DOCTYPE svg PUBLIC "-//W3C//DTD SVG 1.1//EN" "http://www.w3.org/Graphics/SVG/1.1/DTD/svg11.dtd"><svg t="1557991755838" class="icon" style="" viewBox="0 0 1024 1024" version="1.1" xmlns="http://www.w3.org/2000/svg" p-id="17693" xmlns:xlink="http://www.w3.org/1999/xlink" width="200" height="200"><defs><style type="text/css"></style></defs><path d="M512.003413 0C229.23264 0 0 229.23264 0 512.003413S229.23264 1024 512.003413 1024 1024 794.774187 1024 512.003413C1024 229.23264 794.774187 0 512.003413 0z m43.7248 36.273493s32.068267-18.599253 43.229867-7.441066c11.1616 11.1616 50.2272-1.860267 150.674773 57.66144 0 0-22.121813 23.596373-26.96192 22.17984 2.82624 5.13024 11.50976 20.76672 17.660587 30.429866 7.441067 11.68384 9.301333 12.496213 9.301333 12.496214l-7.441066 11.1616 7.441066 1.860266c-7.441067-1.860267-11.1616 20.45952-21.93408 24.180054-10.765653 3.720533 3.334827 24.180053-0.385706 27.900586-3.720533 3.720533 1.860267 37.205333 0 56.927574-1.860267 19.72224-9.301333 2.60096-18.602667 0-9.304747-2.597547-24.18688-8.567467-25.453227-14.148267-1.273173-5.5808-4.31104-22.319787-0.590506-31.62112 3.720533-9.29792-11.1616-18.599253-18.602667-25.419093-7.441067-6.81984-37.20192 1.23904-42.779307 0-5.5808-1.23904-9.29792-17.360213-9.29792-32.238934s26.04032 1.860267 40.697174 0c14.65344-1.860267 16.960853-38.946133 16.960853-38.946133l-0.843093-31.525547c-6.01088-2.4064-6.997333-5.522773 2.70336-9.516373 0 0-31.62112-7.441067-39.062187 9.301333-7.441067 16.738987-11.1616 15.121067-13.018453 31.740587-1.860267 16.626347-31.00672 1.979733-37.82656 0-6.81984-1.979733-25.419093-24.29952-25.419094-24.29952 5.5808-13.018453 9.301333-22.319787 9.301334-22.319787l-9.74848-22.319786v-26.043734z m-293.454506 172.987734c3.157333-4.20864 24.18688-40.922453 50.2272-29.760854 26.04032 11.1616 42.779307-13.021867 42.779306-13.021866s38.23616-39.058773 40.512854-33.481387l2.27328 5.5808c-2.27328-5.5808 31.62112-14.882133 35.341653 3.720533 3.720533 18.599253 26.04032 27.958613 26.04032 27.958614s-13.021867 22.26176-9.301333 39.00416c3.720533 16.745813 16.738987 20.466347 9.301333 35.345066-7.441067 14.882133-22.3232 20.45952-26.04032 27.900587-3.720533 7.441067-34.310827-24.180053-37.614933-35.341653-3.310933-11.1616-19.653973-22.319787-33.798827-18.599254-14.15168 3.720533-51.3536 13.018453-58.791253 9.29792-7.441067-3.71712-49.640107-6.970027-40.92928-18.602666z m498.517333 546.884266c-14.882133 39.058773-50.220373 106.02496-68.82304 124.627627-18.60608 18.602667-40.925867 53.940907-57.664853 66.962773-16.738987 13.018453-16.738987 37.205333-37.20192 35.345067-20.45952-1.860267-44.6464-59.52512-39.0656-74.407253 5.5808-14.882133-102.30784-40.925867-102.30784-40.925867s-46.49984-5.5808-55.801174-94.859947c-1.655467-15.89248-2.720427-27.16672-3.355306-35.00032-13.9776-6.178133-68.799147-28.873387-102.673067-20.80768-39.0656 9.301333-48.366933-12.404053-81.84832-17.363626l-57.668267-53.316267s-94.859947-109.75232-83.70176-128.351573c11.1616-18.602667 11.1616-68.82304 13.018454-79.981227 1.860267-11.1616-14.844587-81.84832-13.93664-91.14624 0.914773-9.304747-13.963947-44.6464-13.963947-44.6464s35.341653-74.407253 40.922453-74.407253 26.04032 63.245653 46.506667 65.10592c20.456107 1.860267 76.260693-1.860267 84.6336-11.1616 8.36608-9.29792 15.807147-20.45952 25.10848-20.45952 9.29792 0 9.29792-5.5808 26.043733 1.860266 16.738987 7.441067 35.341653 18.599253 42.779307 29.760854 7.441067 11.1616-5.5808 33.481387 33.481387 33.481386 39.0656 0 39.0656-9.301333 44.6464 16.738987 5.5808 26.043733 12.19584 83.705173-4.13696 87.432533-16.325973 3.713707-64.692907 60.34432-60.972374 78.533974 3.723947 18.18624 3.723947 46.093653-3.720533 62.83264-7.441067 16.738987-13.018453 22.319787-40.922453 20.45952-27.900587-1.860267-51.490133-16.738987-59.22816 5.5808-7.738027 22.3232-22.53824 72.605013 3.4304 67.529386 0 0 40.922453-12.455253 55.801173 0 14.882133 12.458667 109.748907 53.377707 109.748907 53.377707s85.56544-93.006507 219.4944-33.481387l22.319786 14.87872 37.205334-8.086186s48.360107-14.237013 65.102506-10.513067l16.745814 3.720533v-7.447893c0.003413 0.006827 14.885547 39.0656 0.003413 78.134613z m217.634133-212.056746s-11.1616-16.745813-11.1616-34.351787c0-17.609387-13.021867-15.875413-13.021866-38.1952s-16.738987-14.882133-27.900587-29.760853c-11.1616-14.882133-16.738987 5.5808-26.04032 7.441066-9.304747 1.860267-7.447893 16.738987-16.745813 34.413227-9.301333 17.67424-33.481387 28.832427-40.922454 25.521493-7.441067-3.304107-35.345067-28.3136-37.20192-33.8944-1.86368-5.5808-39.0656-37.20192-38.03136-44.639573 1.030827-7.447893-10.335573-46.506667-17.77664-65.10592-7.441067-18.602667 0-91.886933 0-91.886933-11.1616-6.321493 102.30784-53.20704 87.425707-58.78784-14.882133-5.5808-22.319787-66.95936-22.319787-66.95936l54.145707 27.900586c54.152533 27.900587 122.56256 249.26208 122.56256 249.26208v63.238827l-13.011627 55.804587z m0 0" p-id="17694"></path></svg>