<?xml version="1.0" standalone="no"?><!DOCTYPE svg PUBLIC "-//W3C//DTD SVG 1.1//EN" "http://www.w3.org/Graphics/SVG/1.1/DTD/svg11.dtd"><svg t="1557992412028" class="icon" style="" viewBox="0 0 1024 1024" version="1.1" xmlns="http://www.w3.org/2000/svg" p-id="1478" xmlns:xlink="http://www.w3.org/1999/xlink" width="300" height="300"><defs><style type="text/css"></style></defs><path d="M933.7344 877.2096C992 825.7024 1024 757.8112 1024 685.6192c0-123.5968-94.9248-228.3008-225.024-262.5536-4.3008-186.9312-181.5552-337.9712-399.2576-337.9712C179.3024 85.1456 0 239.8208 0 429.9264c0 92.7744 42.24 179.8144 118.272 240.5376l-30.9248 95.1808a51.0464 51.0464 0 0 0 48.2816 66.9184c8.5504 0 17.2544-2.1504 25.6-6.5024L276.736 757.76c40.192 11.264 81.5104 16.9472 122.9312 16.9472 2.5088 0 4.9664-0.256 7.4752-0.3072 42.752 107.8272 160.8192 185.6 299.7248 185.6 31.5392 0 62.976-4.1472 93.4912-12.3392l90.368 52.1728a45.568 45.568 0 0 0 50.944-5.5808 45.5168 45.5168 0 0 0 14.0288-49.2032l-21.9648-67.84zM297.472 683.8272a71.2704 71.2704 0 0 0-55.3984 6.7584l-61.0304 35.2768 10.2912-31.6928a72.4992 72.4992 0 0 0-22.6304-77.6192C109.4656 566.1184 76.8 499.8144 76.8 429.9264c0-147.7632 144.8448-267.9808 322.8672-267.9808 170.6496 0 310.4768 110.592 321.792 249.9072-4.864-0.2048-9.6768-0.6656-14.592-0.6656-174.848 0-317.0816 123.0848-317.0816 274.432 0 3.9424 0.512 7.7824 0.6656 11.6736a379.8016 379.8016 0 0 1-92.9792-13.4656z m585.216 142.4384a62.464 62.464 0 0 0-19.4048 66.8672l3.1232 9.6256-33.8944-19.6096a61.5424 61.5424 0 0 0-47.6672-5.7344 289.3312 289.3312 0 0 1-77.9264 10.752c-135.2192 0-245.1968-90.8288-245.1968-202.496s109.9776-202.5472 245.1968-202.5472 245.1968 90.8288 245.1968 202.5472c-0.0512 52.5824-24.6784 102.5024-69.4272 140.5952z" p-id="1479"></path><path d="M290.2528 308.224c-28.2112 0-55.1936 22.8352-55.1936 51.0464s27.0336 51.0464 55.1936 51.0464a51.0464 51.0464 0 0 0 0-102.0928zM521.4208 408.576c29.2352 0 55.7568-23.7056 55.7568-52.9408s-26.5216-52.9408-55.7568-52.9408a52.9408 52.9408 0 0 0 0 105.8816zM611.5328 590.1312c-22.3744 0-43.8784 18.176-43.8784 40.5504 0 22.3744 21.4528 40.5504 43.8784 40.5504a40.5504 40.5504 0 1 0 0-81.1008zM795.1872 585.7792a42.0864 42.0864 0 1 0 0 84.1728c23.2448 0 44.288-18.8416 44.288-42.0864s-21.0432-42.0864-44.288-42.0864z" p-id="1480"></path></svg>