<?xml version="1.0" standalone="no"?><!DOCTYPE svg PUBLIC "-//W3C//DTD SVG 1.1//EN" "http://www.w3.org/Graphics/SVG/1.1/DTD/svg11.dtd"><svg t="1557992019890" class="icon" style="" viewBox="0 0 1025 1024" version="1.1" xmlns="http://www.w3.org/2000/svg" p-id="20646" xmlns:xlink="http://www.w3.org/1999/xlink" width="200.1953125" height="200"><defs><style type="text/css"></style></defs><path d="M495.936 724.416c0-152.576 123.648-276.16 276.16-276.16 16.896 0 33.28 1.792 49.28 4.608l0-370.432c0-19.2-15.552-34.688-34.688-34.688l-752 0c-19.136 0-34.688 15.488-34.688 34.688l0 783.744c0 19.2 15.552 34.688 34.688 34.688l524.928 0C519.872 853.056 495.936 791.552 495.936 724.416zM327.104 186.56c0-9.6 7.808-17.344 17.344-17.344l386.048 0c9.6 0 17.408 7.68 17.408 17.344l0 221.248c0 9.536-7.808 17.344-17.408 17.344l-386.048 0c-9.536 0-17.344-7.744-17.344-17.344L327.104 186.56zM73.344 169.28l206.784 0 0 33.216-206.784 0L73.344 169.28zM73.344 274.048l206.784 0 0 33.28-206.784 0L73.344 274.048zM73.344 378.112l206.784 0 0 33.344-206.784 0L73.344 378.112zM73.344 482.24l483.008 0 0 33.344-483.008 0L73.344 482.24zM473.92 774.336l-400.576 0 0-49.856 400.576 0L473.92 774.336zM488.384 636.288l-414.976 0 0-49.856 414.976 0L488.384 636.288z" p-id="20647"></path><path d="M1015.296 658.88c-36.288-134.336-174.528-213.696-308.736-177.472-73.472 19.904-134.144 72-164.8 141.76-56 127.232 1.728 275.84 129.024 331.84 127.296 56 275.968-1.792 331.968-129.088 4.032-9.216 7.552-18.624 10.368-28.16C1026.816 752.512 1027.648 704.384 1015.296 658.88zM937.152 655.04l-210.432 210.304c-5.056 5.184-11.712 7.616-18.368 7.616-6.656 0-13.312-2.432-18.432-7.616l-109.504-109.504c-10.24-10.112-10.24-26.624 0-36.8 10.176-10.112 26.624-10.112 36.8 0l91.136 91.136 192-191.936c10.176-10.24 26.624-10.24 36.8 0C947.328 628.416 947.328 644.864 937.152 655.04z" p-id="20648"></path></svg>