<?xml version="1.0" standalone="no"?><!DOCTYPE svg PUBLIC "-//W3C//DTD SVG 1.1//EN" "http://www.w3.org/Graphics/SVG/1.1/DTD/svg11.dtd"><svg t="1557994602312" class="icon" style="" viewBox="0 0 1024 1024" version="1.1" xmlns="http://www.w3.org/2000/svg" p-id="41472" xmlns:xlink="http://www.w3.org/1999/xlink" width="300" height="300"><defs><style type="text/css"></style></defs><path d="M544.621714 947.053714c-40.228571 2.194286-80.603429 3.218286-120.978285 3.145143-359.497143 0-416.182857-74.093714-416.182858-74.093714C-30.500571 707.584 82.944 694.125714 209.188571 646.948571 341.577143 599.771429 322.706286 512.146286 297.472 491.958857c-12.580571-6.729143-18.870857-20.187429-25.234286-26.989714-18.944-20.187429-31.451429-40.374857-37.814857-67.291429-25.234286 0-44.178286-20.260571-50.468571-60.708571-6.363429-33.645714 6.363429-67.437714 31.597714-67.437714C215.552 121.270857 278.601143 0 423.643429 0c138.678857 0 208.091429 121.270857 208.091428 269.531429 25.234286 6.802286 37.814857 40.448 31.524572 74.166857-6.363429 33.645714-25.234286 60.708571-50.468572 60.708571-6.290286 26.916571-18.870857 47.104-31.451428 67.291429-6.436571 6.802286-19.017143 20.260571-31.597715 27.062857-21.211429 16.969143-33.499429 81.773714 38.473143 125.952a36.571429 36.571429 0 0 0-28.964571 14.409143 411.355429 411.355429 0 0 0-21.138286 45.933714 38.912 38.912 0 0 0 16.603429 40.594286l12.726857 7.826285c19.894857 13.604571 21.723429 36.937143 20.406857 63.268572-1.316571 26.404571-15.140571 35.108571-36.059429 46.445714l-13.458285 6.436572a38.180571 38.180571 0 0 0-20.626286 38.4c4.388571 16.384 9.874286 32.402286 16.384 47.908571a36.205714 36.205714 0 0 0 10.532571 11.117714z m466.797715-96.548571a25.380571 25.380571 0 0 1 12.141714 26.624c-3.510857 10.752-7.753143 21.211429-12.580572 31.305143a24.064 24.064 0 0 1-26.697142 9.508571l-9.435429-3.072a45.056 45.056 0 0 0-44.470857 12.434286 49.005714 49.005714 0 0 0-11.849143 46.08l2.925714 9.654857c2.852571 10.313143-0.877714 21.357714-9.216 27.648-9.801143 5.12-19.894857 9.508571-30.354285 12.946286a24.137143 24.137143 0 0 1-25.380572-12.8l-4.608-9.216a45.933714 45.933714 0 0 0-39.862857-23.405715 46.006857 46.006857 0 0 0-39.789714 23.552l-4.608 9.069715a24.137143 24.137143 0 0 1-25.380572 12.8 203.922286 203.922286 0 0 1-30.281143-12.946286 25.892571 25.892571 0 0 1-9.142857-27.648l2.925715-9.801143a48.932571 48.932571 0 0 0-11.922286-45.933714 45.056 45.056 0 0 0-44.397714-12.434286l-9.508572 2.925714a24.064 24.064 0 0 1-26.624-9.508571 219.574857 219.574857 0 0 1-12.580571-31.305143 25.6 25.6 0 0 1 12.434285-26.331428l8.777143-4.754286a48.274286 48.274286 0 0 0 22.674286-41.252572 48.274286 48.274286 0 0 0-22.893714-41.252571l-8.777143-4.827429a25.892571 25.892571 0 0 1-12.288-26.331428c3.510857-10.752 7.68-21.211429 12.434286-31.451429a23.844571 23.844571 0 0 1 26.770285-9.508571l9.435429 3.145143a45.056 45.056 0 0 0 44.397714-12.434286 48.932571 48.932571 0 0 0 11.922286-45.933714l-2.779429-9.801143a26.112 26.112 0 0 1 9.142857-27.794286c9.801143-5.12 19.968-9.508571 30.427429-12.946286a24.137143 24.137143 0 0 1 25.380571 12.8l4.608 9.069715c8.265143 14.628571 23.405714 23.698286 39.789715 23.698285a45.860571 45.860571 0 0 0 39.862857-23.698285l4.608-9.069715a24.137143 24.137143 0 0 1 25.380571-12.8c10.386286 3.657143 20.48 8.045714 30.281143 12.946286 8.265143 5.997714 12.434286 17.554286 9.142857 27.648l-2.852571 9.801143a48.932571 48.932571 0 0 0 11.995428 46.006857c11.629714 11.995429 28.525714 16.749714 44.397715 12.434286l9.508571-2.925714a24.064 24.064 0 0 1 26.624 9.508571c4.973714 10.020571 9.142857 20.48 12.507429 31.232a25.6 25.6 0 0 1-12.361143 26.331429l-8.777143 4.754285a48.274286 48.274286 0 0 0-22.674286 41.325715 48.274286 48.274286 0 0 0 22.820572 41.179428l8.777143 4.827429z m-199.168 43.154286c47.616 0 86.162286-39.936 86.162285-89.234286 0-49.298286-38.546286-89.234286-86.162285-89.234286-47.542857 0-86.162286 39.936-86.162286 89.234286 0 49.298286 38.619429 89.234286 86.162286 89.234286z" p-id="41473"></path></svg>