<?xml version="1.0" standalone="no"?><!DOCTYPE svg PUBLIC "-//W3C//DTD SVG 1.1//EN" "http://www.w3.org/Graphics/SVG/1.1/DTD/svg11.dtd"><svg t="1557993680718" class="icon" style="" viewBox="0 0 1024 1024" version="1.1" xmlns="http://www.w3.org/2000/svg" p-id="35655" xmlns:xlink="http://www.w3.org/1999/xlink" width="300" height="300"><defs><style type="text/css"></style></defs><path d="M924.314303 343.401412C875.744577 395.324235 807.899558 421.647059 722.62646 421.647059L722.62646 381.490196C796.334381 381.490196 854.320891 359.464157 894.999793 315.994353 954.191009 252.687059 962.925126 159.824314 963.808577 120.45051L823.018616 120.45051 823.018616 115.049412C797.137518 263.348706 722.847322 369.523451 660.985675 457.627608 641.871009 484.793725 623.840577 510.494118 609.08293 534.889412 599.826773 550.189176 601.894852 569.584941 609.203401 622.451451L772.320577 622.451451 772.320577 963.744627 231.22693 963.744627 231.22693 622.451451 414.563087 622.451451C421.871636 572.717176 423.819244 557.718588 415.044969 544.788078 399.484185 521.798275 380.871479 497.824627 361.174538 472.465569 341.718538 447.387608 321.138146 420.803765 300.979401 392.111686L300.979401 421.647059C220.665675 421.647059 147.961675 395.324235 99.412028 343.401412 11.187401 249.032784 19.801048 105.130667 20.222695 99.06698L21.507715 80.313725 175.489205 80.313725C173.260499 61.05851 171.593989 41.301333 171.112107 20.560314L170.630224-0.020078 832.917283-0.020078 832.435401 20.560314C831.953518 41.261176 830.307087 61.038431 828.058303 80.313725L1002.439479 80.313725 1003.684342 99.06698C1004.105989 105.130667 1012.599165 249.032784 924.314303 343.401412ZM60.158695 120.45051C61.082303 159.944784 69.81642 253.088627 128.927322 316.134902 168.220813 358.098824 217.593675 379.823686 293.449989 381.209098 245.261754 310.834196 200.828185 227.227608 181.392264 120.45051L60.158695 120.45051ZM211.991793 40.156863C222.673518 228.592941 316.720891 349.746196 392.818146 447.809255 412.916656 473.73051 431.910852 498.186039 448.214538 522.24 471.846852 557.116235 456.607322 616.347608 451.366852 646.003451L448.435401 662.608314 271.303479 662.608314 271.303479 923.627922 732.244028 923.627922 732.244028 662.608314 574.949597 662.608314 572.178773 645.76251C568.564656 623.776627 551.678695 552.297412 574.809048 514.048 590.289518 488.528314 608.70144 462.285804 628.197597 434.517333 696.745362 336.916078 781.436185 216.32502 791.535636 40.156863L211.991793 40.156863ZM672.430381 863.352471 331.097048 863.352471 331.097048 722.823529 672.430381 722.823529 672.430381 863.352471ZM632.273518 762.980392 371.253911 762.980392 371.253911 823.215686 632.273518 823.215686 632.273518 762.980392ZM883.253911 1024 140.35195 1024 140.35195 983.843137 883.253911 983.843137 883.253911 1024Z" p-id="35656"></path></svg>