<?xml version="1.0" standalone="no"?><!DOCTYPE svg PUBLIC "-//W3C//DTD SVG 1.1//EN" "http://www.w3.org/Graphics/SVG/1.1/DTD/svg11.dtd"><svg t="1557992855977" class="icon" style="" viewBox="0 0 1024 1024" version="1.1" xmlns="http://www.w3.org/2000/svg" p-id="4054" xmlns:xlink="http://www.w3.org/1999/xlink" width="300" height="300"><defs><style type="text/css"></style></defs><path d="M719.9 268.1c23.3 0 39.9-18.3 41.5-43.2v-84.7c0-11.6-3.3-21.6-11.6-29.9-11.6-13.3-28.2-16.6-44.8-10-15 6.6-26.6 21.6-26.6 39.9v84.7c0 23.3 18.3 43.2 41.5 43.2zM304.7 268.1c23.3 0 39.9-18.3 41.5-43.2v-83.1c0-11.6-3.3-21.6-11.6-29.9-11.6-13.3-28.2-16.6-44.9-10-16.6 5-26.6 19.9-26.6 38.2v84.7c0 23.4 18.3 43.3 41.6 43.3zM799.1 758c32.5-18.8 56.5-54.8 56.5-95.9 0-60-48-109.6-106.2-109.6s-106.2 49.7-106.2 109.6c0 41.1 22.3 77.1 56.5 95.9C636.4 776.8 585 831.6 573 901.9c-1.7 12 5.1 22.3 15.4 24h322c10.3-1.7 18.8-13.7 15.4-24-11.9-70.3-61.6-123.4-126.7-143.9z" p-id="4055"></path><path d="M862.8 185.1c-23.3-5-48.2-3.3-73.1-3.3v51.5c0 48.2-51.5 83.1-94.7 64.8-26.6-11.6-44.9-36.5-44.9-68.1v-46.5H374.4v58.1c-6.6 38.2-38.2 64.8-76.4 61.5-36.5-3.3-63.1-34.9-63.1-73.1v-46.5h-64.8c-3.3 0-6.6 0-11.6 1.7-36.6 11.5-61.5 43.1-61.5 82.9v571.4c0 49.8 36.5 88 84.7 88h330.5l-0.3-61.5H192.4c-21.6 0-31.6-11.6-31.6-33.2v-397h704.9v86.3l61.8-0.4v-252c0.1-43.1-26.5-78-64.7-84.6z" p-id="4056"></path><path d="M257.5 600.6h309c17.6 0 32-14.4 32-32s-14.4-32-32-32h-309c-17.6 0-32 14.4-32 32s14.4 32 32 32zM479.9 687.6H257.1c-17.6 0-32 14.4-32 32s14.4 32 32 32h222.8c17.6 0 32-14.4 32-32s-14.4-32-32-32z" p-id="4057"></path></svg>