<?xml version="1.0" standalone="no"?><!DOCTYPE svg PUBLIC "-//W3C//DTD SVG 1.1//EN" "http://www.w3.org/Graphics/SVG/1.1/DTD/svg11.dtd"><svg t="1557994542070" class="icon" style="" viewBox="0 0 1024 1024" version="1.1" xmlns="http://www.w3.org/2000/svg" p-id="39000" xmlns:xlink="http://www.w3.org/1999/xlink" width="300" height="300"><defs><style type="text/css"></style></defs><path d="M512.749 2.113C231.494 2.113 3.491 230.117 3.491 511.371c0 281.263 228.003 509.267 509.258 509.267 281.263 0 509.267-228.004 509.267-509.267 0-281.254-228.004-509.258-509.267-509.258z m0 945.774c-58.958 0-116.115-11.533-169.884-34.274-40.936-17.312-78.579-40.546-112.326-69.226 13.842-36.355 48-72.606 95.741-101.058 55.583-33.126 123.826-52.125 187.23-52.125 63.237 0 131.198 18.938 186.456 51.952 47.469 28.363 81.49 64.58 95.33 100.947-33.834 28.808-71.59 52.136-112.656 69.509-53.769 22.742-110.926 34.275-169.891 34.275z m336.782-158.755c-23.293-40.853-61.781-78.273-112.246-108.424-67.188-40.147-146.663-62.255-223.774-62.255-77.259 0-156.98 22.152-224.474 62.377-50.749 30.244-89.414 67.744-112.758 108.656-27.099-32.687-49.15-68.942-65.764-108.224C87.774 627.495 76.24 570.336 76.24 511.371c0-58.955 11.534-116.114 34.274-169.882 21.981-51.975 53.469-98.661 93.577-138.774 40.113-40.114 86.805-71.596 138.774-93.577 53.769-22.745 110.926-34.274 169.889-34.274 58.96 0 116.117 11.529 169.887 34.274 51.967 21.98 98.66 53.463 138.773 93.577 40.111 40.113 71.596 86.799 93.574 138.774 22.74 53.768 34.277 110.927 34.277 169.882 0 58.965-11.537 116.124-34.277 169.892-16.552 39.136-38.496 75.276-65.457 107.869z m0 0" p-id="39001"></path><path d="M513.511 180.458c-100.288 0-181.879 81.592-181.879 181.878 0 100.287 81.591 181.879 181.879 181.879 100.287 0 181.88-81.586 181.88-181.879 0-100.286-81.593-181.878-181.88-181.878z m0 291.007c-60.174 0-109.129-48.957-109.129-109.129 0-60.173 48.956-109.129 109.129-109.129 60.171 0 109.126 48.956 109.126 109.129 0 60.172-48.955 109.129-109.126 109.129z m0 0" p-id="39002"></path></svg>