<?xml version="1.0" standalone="no"?><!DOCTYPE svg PUBLIC "-//W3C//DTD SVG 1.1//EN" "http://www.w3.org/Graphics/SVG/1.1/DTD/svg11.dtd"><svg t="1557993214901" class="icon" style="" viewBox="0 0 1024 1024" version="1.1" xmlns="http://www.w3.org/2000/svg" p-id="16073" xmlns:xlink="http://www.w3.org/1999/xlink" width="300" height="300"><defs><style type="text/css"></style></defs><path d="M821.803 170.667c40.789 0 74.197 37.205 74.197 82.688v431.957C896 730.795 862.592 768 821.803 768H202.197C161.408 768 128 730.795 128 685.312V253.355c0-45.483 33.408-82.688 74.197-82.688h619.606zM789.333 448V320c0-2.773-0.597-5.547-1.621-8.15a21.608 21.608 0 0 0-11.563-11.562c-2.602-1.024-5.376-1.621-8.149-1.621H640c-11.776 0-21.333 9.557-21.333 21.333 0 11.776 9.557 21.333 21.333 21.333h76.501L554.667 503.168 441.77 390.229c-8.363-8.32-21.846-8.32-30.208 0L240.896 560.896c-8.32 8.363-8.32 21.845 0 30.208a21.428 21.428 0 0 0 15.104 6.23c5.461 0 10.923-2.091 15.104-6.23l155.563-155.605 112.896 112.938c8.362 8.32 21.845 8.32 30.208 0L746.667 371.5V448c0 11.776 9.557 21.333 21.333 21.333 11.776 0 21.333-9.557 21.333-21.333z m85.334 362.667c11.776 0 21.333 9.557 21.333 21.333 0 11.776-9.557 21.333-21.333 21.333H768C768 876.928 748.928 896 725.333 896c-23.594 0-42.666-19.072-42.666-42.667H341.333c0 23.595-19.072 42.667-42.666 42.667C275.072 896 256 876.928 256 853.333H149.333C137.557 853.333 128 843.776 128 832c0-11.776 9.557-21.333 21.333-21.333h725.334z" p-id="16074"></path></svg>