<?xml version="1.0" standalone="no"?><!DOCTYPE svg PUBLIC "-//W3C//DTD SVG 1.1//EN" "http://www.w3.org/Graphics/SVG/1.1/DTD/svg11.dtd"><svg t="1557993923393" class="icon" style="" viewBox="0 0 1024 1024" version="1.1" xmlns="http://www.w3.org/2000/svg" p-id="36784" xmlns:xlink="http://www.w3.org/1999/xlink" width="300" height="300"><defs><style type="text/css"></style></defs><path d="M393.899 945.129c-67.486 0-129.349-33.743-163.091-84.357l-28.118-33.743 44.992 5.623c67.485 5.625 89.98-28.118 112.477-67.486 22.494-39.367 50.615-89.981 134.972-89.981h5.624l73.109 61.863v5.624c5.625 56.238-11.247 106.853-44.991 140.595-28.118 44.992-78.733 61.863-134.972 61.863zM287.047 872.019c61.862 50.615 163.091 44.992 213.706-11.247 22.494-28.119 33.742-61.863 33.742-106.853l-50.615-44.992c-56.239 5.625-73.11 33.743-95.605 67.487-16.871 44.991-39.367 84.357-101.228 95.604zM590.734 725.799l-78.734-61.862 5.624-33.743c11.247-67.486 16.871-95.605 73.11-140.596 67.486-61.863 292.438-258.697 292.438-258.697 22.496-16.87 50.616-11.247 61.863 11.248 5.624 11.247 5.624 28.118 0 39.367 0 5.625-151.843 258.697-202.458 337.432-39.367 61.862-67.486 73.109-129.349 95.604l-22.494 11.247zM556.991 647.065l39.367 33.743 11.248-5.624c61.862-22.494 78.733-33.743 106.853-78.733 50.616-78.734 202.459-331.807 202.459-337.43-5.624 0-230.577 196.834-298.063 258.696-44.992 39.367-44.992 56.239-61.863 123.725v5.624zM348.91 669.561c-50.616 0-89.982-39.367-89.982-89.982 0-50.614 39.367-89.98 89.982-89.98 50.614 0 89.98 39.367 89.98 89.981 0 22.495-11.247 44.992-28.118 61.862-16.871 16.871-39.367 28.119-61.863 28.119zM348.91 528.966c-28.119 0-50.616 22.494-50.616 50.615 0 28.118 22.495 50.615 50.615 50.615v0c11.248 0 28.119-5.624 33.743-16.871 11.248-5.624 16.871-22.495 16.871-33.743 0-28.119-22.494-50.615-50.615-50.615zM382.651 461.48c-50.615 0-89.98-39.367-89.98-89.982 0-22.494 11.247-44.991 28.118-61.862 16.871-16.871 39.367-28.118 61.862-28.118 50.615 0 89.982 39.367 89.982 89.981 0 22.494-11.248 44.992-28.119 61.862-16.871 16.871-39.367 28.119-61.863 28.119zM382.651 326.507c-11.247 0-28.118 5.624-33.743 16.871-11.247 5.624-16.871 16.871-16.871 28.119 0 28.118 22.495 50.615 50.615 50.615v0c11.248 0 28.119-5.624 33.742-16.871 11.248-5.624 16.871-22.495 16.871-33.743 0-28.119-22.494-44.992-50.615-44.992zM590.734 393.993c-50.616 0-89.982-39.367-89.982-89.98 0-22.495 11.248-44.992 28.119-61.863 16.871-16.871 39.367-28.118 61.863-28.118 50.615 0 89.98 39.367 89.98 89.981 0 50.615-39.367 89.98-89.98 89.98zM590.734 253.397c-11.248 0-28.119 5.625-33.743 16.871-11.247 11.248-16.871 22.495-16.871 33.743 0 28.118 22.495 50.615 50.616 50.615v0c28.118 0 50.615-22.495 50.615-50.615s-22.495-50.616-50.615-50.616z" fill="" p-id="36785"></path><path d="M180.193 798.909c-101.228-101.228-112.477-213.706-112.477-320.558 22.496-247.449 185.588-399.292 438.658-416.165 230.577-5.622 303.687 118.103 320.559 151.845l11.247 22.494-39.367 16.871-5.624-22.494c-16.871-33.743-78.734-134.973-281.192-129.349-236.201 11.247-382.42 157.467-404.916 382.42 0 112.477 16.871 202.459 101.229 286.816l-28.118 28.118zM523.247 962l-5.623-39.367c151.843-16.872 236.201-56.24 281.192-146.22 28.118-84.357-11.248-112.477-28.119-129.349-5.623 0-5.623-5.624-5.623-5.624l28.118-28.118 5.624 5.624c22.494 16.871 78.733 61.862 39.367 174.339-50.615 101.228-151.842 151.843-314.935 168.715z" fill="" p-id="36786"></path></svg>