<?xml version="1.0" standalone="no"?><!DOCTYPE svg PUBLIC "-//W3C//DTD SVG 1.1//EN" "http://www.w3.org/Graphics/SVG/1.1/DTD/svg11.dtd"><svg t="1557993784901" class="icon" style="" viewBox="0 0 1024 1024" version="1.1" xmlns="http://www.w3.org/2000/svg" p-id="35764" xmlns:xlink="http://www.w3.org/1999/xlink" width="300" height="300"><defs><style type="text/css"></style></defs><path d="M469.4 269.8c0 3.9 2 5.9 2 9.8 9.8 9.8 17.7 23.5 19.6 39.2h389.1v405.8H579.5v47.1h347.8V269.8H469.4z m0 0" fill="" p-id="35765"></path><path d="M221.8 379.6c21.6 54.9 62.9 107.8 108.1 107.8s82.5-51 104.2-107.8c13.8-2 27.5-15.7 31.4-35.3 5.9-23.5-2-47.1-17.7-52.9-3.9-68.6-57-123.5-121.8-123.5s-117.9 54.9-121.8 123.5c-15.7 7.8-21.6 29.4-15.7 52.9 3.8 21.6 19.6 35.3 33.3 35.3" fill="" p-id="35766"></path><path d="M449.8 473.7l-98.3 164.7-11.8-74.5c7.9-3.9 13.8-13.7 13.8-23.5 0-15.7-11.8-27.4-27.5-27.4s-27.5 11.8-27.5 27.4c0 9.8 5.9 19.6 13.8 23.5l-11.8 72.5-98.3-162.7c-55 23.5-94.3 62.7-102.2 107.8h-2v239.2h2c9.8 19.6 108.1 35.3 228 35.3s216.2-15.7 228-35.3h2V581.5h-2c-11.9-45-51.2-84.3-106.2-107.8" fill="" p-id="35767"></path><path d="M591.2 581.5l-17.7 17.6 39.3 39.2 17.7-17.6c13.8 7.8 27.5 13.7 43.2 17.6V660h55v-21.6c15.7-3.9 31.4-9.8 45.2-17.6l17.7 17.6 39.3-39.2-15.7-15.7c9.8-13.7 15.7-29.4 19.6-45.1h23.6v-54.9h-23.6c-3.9-17.6-9.8-33.3-19.6-47l17.7-17.6-39.3-39.2-17.6 17.6c-13.8-9.8-29.5-15.7-47.2-19.6v-21.6h-55v21.6c-15.7 3.9-31.4 9.8-43.2 17.6l-19.7-19.6-39.3 39.2 19.6 19.6c-9.8 13.7-15.7 29.4-19.6 45.1H546v56.9h25.5c4 17.6 9.9 31.3 19.7 45M703.3 413c53.1 0 96.3 43.1 96.3 94.1 0 52.9-43.2 94.1-96.3 94.1-53.1 0-96.3-43.1-96.3-94.1 0-51 43.2-94.1 96.3-94.1" fill="" p-id="35768"></path><path d="M701.3 579.6c39.3 0 72.7-31.4 72.7-70.6 0-39.2-33.4-70.6-72.7-70.6-39.3 0-72.7 31.4-72.7 70.6 0 39.2 33.4 70.6 72.7 70.6m0-119.6c27.5 0 49.1 21.6 49.1 49s-21.6 49-49.1 49-49.1-21.6-49.1-49 23.5-49 49.1-49" fill="" p-id="35769"></path><path d="M701.3 534.5c13.8 0 25.5-11.8 25.5-25.5s-11.8-25.5-25.5-25.5c-13.8 0-25.5 11.8-25.5 25.5-0.1 13.7 11.7 25.5 25.5 25.5" fill="" p-id="35770"></path></svg>